<svg id="Layer_1" data-name="Layer 1" xmlns="http://www.w3.org/2000/svg" viewBox="0 0 624.94 103.25"><title>actual-trivia-banner-black</title><path d="M58,122.4H42l-2.74-18.29H19.83L17.09,122.4H2.55L18.67,21.6H41.86Zm-36.14-32H37.11l-7.63-51Z" transform="translate(-2.55 -20.45)"/><path d="M111.27,84.82V98.21c0,16.13-8.06,25.34-23.62,25.34S64,114.33,64,98.21V45.79c0-16.13,8.06-25.34,23.62-25.34s23.62,9.22,23.62,25.34v9.79h-15V44.78c0-7.2-3.17-9.94-8.21-9.94s-8.21,2.74-8.21,9.94V99.21c0,7.2,3.17,9.79,8.21,9.79s8.21-2.59,8.21-9.79V84.82h15Z" transform="translate(-2.55 -20.45)"/><path d="M116.3,21.6h49V36H148.7v86.4H132.86V36H116.3V21.6Z" transform="translate(-2.55 -20.45)"/><path d="M187.29,21.6V99.36c0,7.2,3.17,9.79,8.21,9.79s8.21-2.59,8.21-9.79V21.6h15V98.35c0,16.13-8.06,25.34-23.62,25.34s-23.62-9.22-23.62-25.34V21.6h15.84Z" transform="translate(-2.55 -20.45)"/><path d="M280.75,122.4h-16L262,104.11H242.59l-2.74,18.29H225.31L241.44,21.6h23.18Zm-36.14-32h15.26l-7.63-51Z" transform="translate(-2.55 -20.45)"/><path d="M288.09,21.6h15.84V108H330v14.4h-41.9V21.6Z" transform="translate(-2.55 -20.45)"/><path d="M384.71,122.4V27.65H364.12v-6h47.66v6H391.34V122.4h-6.62Z" transform="translate(-2.55 -20.45)"/><path d="M441.45,21.6c15.41,0,21.6,8.5,21.6,22.75v8.78c0,11.81-4.61,18.58-14.54,20.88C458.87,76.32,463,83.66,463,94.61v15.7c0,4.18.29,8.78,2.45,12.1h-6.91c-1.73-3-2.16-6.62-2.16-12.1V94.46c0-13.39-7.34-17.14-18.86-17.14H427V122.4h-6.62V21.6h21ZM437.7,71.28c11.81,0,18.72-3.31,18.72-16.85v-9.5c0-10.8-4.18-17.28-15.12-17.28H427V71.28H437.7Z" transform="translate(-2.55 -20.45)"/><path d="M482.63,21.6V122.4H476V21.6h6.62Z" transform="translate(-2.55 -20.45)"/><path d="M499.48,21.6l20.45,93.17L540.37,21.6h6.19L524.68,122.4h-9.79L492.71,21.6h6.77Z" transform="translate(-2.55 -20.45)"/><path d="M563.27,21.6V122.4h-6.62V21.6h6.62Z" transform="translate(-2.55 -20.45)"/><path d="M584.43,100.08l-5,22.32h-6l22-100.94H605L627.49,122.4h-6.62l-5-22.32H584.43Zm1-5.76h29.38L600,29.09Z" transform="translate(-2.55 -20.45)"/></svg>